<svg width="1024" height="1024" viewBox="0 0 1024 1024" fill="none" xmlns="http://www.w3.org/2000/svg">
<g clip-path="url(#clip0_257_32)">
<rect width="1024" height="1024" fill="#0075BB"/>
<circle cx="405.099" cy="470.019" r="155.135" fill="#FBA51A" stroke="black" stroke-width="10"/>
<circle cx="405.099" cy="470.019" r="60.7853" fill="#FFDF01" stroke="black" stroke-width="10"/>
<circle cx="344.507" cy="880.311" r="203.609" fill="#FFDF01" stroke="black" stroke-width="10"/>
<circle cx="344.507" cy="880.311" r="130.899" fill="#443D70" stroke="black" stroke-width="10"/>
<circle cx="344.507" cy="880.311" r="80.6987" fill="#41BCE6" stroke="black" stroke-width="10"/>
<circle cx="123.507" cy="928.799" r="166.114" fill="#F861A4" stroke="black" stroke-width="10"/>
<circle cx="123.507" cy="928.799" r="106.473" fill="#443D70" stroke="black" stroke-width="10"/>
<circle cx="123.507" cy="928.799" r="65.2956" fill="#EC4521" stroke="black" stroke-width="10"/>
<circle cx="492.513" cy="62.0049" r="104.065" fill="#FFDF01" stroke="black" stroke-width="10"/>
<circle cx="492.513" cy="62.0049" r="39.8051" fill="#00AF9B" stroke="black" stroke-width="10"/>
<circle cx="86.2452" cy="-29.4303" r="248.068" fill="#FFDF01" stroke="black" stroke-width="10"/>
<circle cx="86.2465" cy="-29.4305" r="98.9633" fill="#41BCE6" stroke="black" stroke-width="10"/>
<circle cx="942.029" cy="141.038" r="418.537" fill="#2E1E47" stroke="black" stroke-width="10"/>
<circle cx="942.029" cy="141.038" r="418.537" fill="#2E1E47" stroke="black" stroke-width="10"/>
<circle cx="942.028" cy="141.038" r="392.192" fill="#602C6F" stroke="black" stroke-width="10"/>
<circle cx="942.029" cy="141.038" r="357.742" fill="#F76FAC" stroke="black" stroke-width="10"/>
<circle cx="942.029" cy="141.038" r="335.451" fill="#443D70" stroke="black" stroke-width="10"/>
<circle cx="942.029" cy="141.038" r="205.755" fill="#00AF9B" stroke="black" stroke-width="10"/>
<circle cx="942.03" cy="141.038" r="74.0332" fill="#FFDF01" stroke="black" stroke-width="10"/>
<circle cx="741.383" cy="661.748" r="299.262" fill="white" stroke="black" stroke-width="10"/>
<circle cx="741.382" cy="661.748" r="249.973" fill="#41BCE6" stroke="black" stroke-width="10"/>
<circle cx="741.383" cy="661.748" r="198.789" fill="#EC4521" stroke="black" stroke-width="10"/>
<circle cx="741.383" cy="661.748" r="96.4205" fill="#F861A4" stroke="black" stroke-width="10"/>
<circle cx="741.382" cy="661.748" r="50.9235" fill="#41BCE6" stroke="black" stroke-width="10"/>
<circle cx="193.801" cy="753.969" r="77.2671" fill="#009FD3" stroke="black" stroke-width="10"/>
<circle cx="193.802" cy="753.97" r="28.7962" fill="#41BCE6" stroke="black" stroke-width="10"/>
</g>
<defs>
<clipPath id="clip0_257_32">
<rect width="1024" height="1024" fill="white"/>
</clipPath>
</defs>
</svg>
