<svg width="935" height="278" viewBox="0 0 935 278" fill="none" xmlns="http://www.w3.org/2000/svg">
<path d="M933.817 144.715C933.482 144.715 932.474 145.723 930.795 147.404C923.406 157.488 916.689 162.866 910.644 162.866C905.607 162.866 903.256 159.505 903.256 152.782C903.256 150.429 903.927 147.404 904.935 143.706L906.278 142.362C909.637 140.345 912.323 138.664 914.003 137.656C925.086 130.596 930.459 125.218 930.459 121.521C930.459 119.504 929.116 118.495 926.765 118.495C923.07 118.495 919.376 120.848 914.674 125.554C910.308 130.26 906.614 136.311 903.592 143.034C899.897 146.059 895.867 149.757 891.837 154.463C898.218 144.378 901.576 136.311 901.576 130.26C901.576 122.193 898.554 118.159 892.173 118.159C887.807 118.159 879.747 126.227 867.321 142.362L865.306 145.387C864.97 145.723 864.97 146.059 864.97 146.395C864.97 146.731 864.97 147.068 865.306 147.068C865.977 147.068 866.649 146.395 867.321 145.387C879.075 128.243 886.799 119.84 891.501 119.84C893.18 119.84 894.188 120.848 894.188 123.201C894.188 126.899 889.486 136.647 879.747 152.446L860.268 184.043C864.634 183.707 867.321 183.707 867.321 183.707C867.992 183.707 870.343 183.707 874.709 184.043C882.433 170.934 887.807 162.194 890.83 158.16C893.852 153.79 897.882 149.757 902.92 145.387C901.912 148.748 901.576 151.437 901.576 153.79C901.576 160.849 904.599 164.211 910.644 164.211C916.018 164.211 921.727 160.849 927.436 154.127C932.138 149.084 934.489 146.059 934.489 145.387C934.489 145.051 934.153 144.715 933.817 144.715ZM845.491 139C837.767 144.378 828.027 148.412 816.608 151.437C822.989 142.362 829.706 134.63 836.759 128.916C843.476 123.201 849.185 120.176 853.215 120.176C855.902 120.176 857.245 121.521 857.245 123.874C857.245 128.58 853.215 133.622 845.491 139ZM866.649 145.051C865.977 145.051 865.306 145.723 864.298 147.068C846.163 171.27 831.05 183.371 818.624 183.371C811.235 183.371 807.541 180.01 807.541 173.287C807.541 167.909 810.227 161.186 815.601 153.118C833.065 149.757 845.155 146.059 852.544 142.025C859.932 137.992 863.626 133.286 863.626 127.571C863.626 125.218 862.619 123.201 860.604 121.521C858.589 119.84 856.238 118.831 853.215 118.831C846.834 118.831 838.102 121.521 827.691 127.235C807.877 137.992 798.137 150.429 798.137 164.547C798.137 170.598 800.152 175.64 803.846 179.337C807.541 183.371 812.242 185.388 817.616 185.388C829.37 185.388 843.14 175.304 859.596 155.135L864.634 148.748C865.977 147.068 866.649 146.059 866.649 145.723C867.321 145.387 866.985 145.051 866.649 145.051ZM795.786 118.495L809.22 95.6374C806.869 96.3097 804.518 96.6459 802.503 96.6459C800.488 96.6459 798.137 96.3097 795.786 95.6374L782.017 118.495H770.262L768.919 120.176H781.009L761.194 153.454C757.164 160.513 754.813 166.564 754.813 171.27C754.813 175.304 756.157 178.665 758.508 181.354C760.859 184.043 764.217 185.388 767.911 185.388C775.3 185.388 786.383 174.968 801.496 154.463L806.533 147.404C807.205 146.395 807.541 145.723 807.877 145.387C807.877 145.051 807.541 144.715 807.205 144.715C806.869 144.715 806.197 145.051 805.862 146.059C788.734 170.934 776.643 183.707 769.591 183.707C765.896 183.707 763.881 182.027 763.881 178.329C763.881 174.968 765.56 170.934 768.583 165.219L794.779 120.176H810.227L811.235 118.495H795.786ZM735.335 171.27C729.289 179.001 723.244 182.699 716.527 182.699C713.169 182.699 710.146 181.69 708.131 179.674C705.781 177.657 704.773 174.968 704.773 171.606C704.773 168.581 705.781 165.892 708.131 163.202C710.482 160.513 713.169 158.833 716.192 158.16C723.916 156.48 727.61 153.454 727.61 148.748C727.61 147.068 726.939 145.387 725.259 144.042C733.655 133.958 740.036 125.89 744.402 120.512C744.067 122.865 744.066 125.89 744.066 129.252C744.066 133.622 744.067 136.983 744.402 139.336C744.402 141.689 744.738 144.042 744.738 146.395C744.067 155.135 741.044 163.539 735.335 171.27ZM758.508 97.6543C755.821 97.6543 753.134 99.6712 750.448 103.705C747.761 107.739 745.746 112.445 744.402 117.823C739.701 123.874 736.006 128.58 732.984 131.941L723.58 143.37C722.908 143.034 722.237 143.034 721.565 143.034C717.199 143.034 712.833 145.723 708.467 151.437C704.101 157.152 702.086 162.866 702.086 168.581C702.086 173.623 703.765 177.657 706.788 180.682C709.811 183.707 714.177 185.388 719.55 185.388C728.954 185.388 737.014 182.699 744.066 177.657C751.119 172.615 754.478 166.228 754.478 159.169C754.478 155.807 753.47 151.774 751.455 146.731C747.425 136.647 745.074 129.588 745.074 124.882C745.074 123.201 745.41 120.848 745.746 118.495C755.485 109.083 760.523 103.033 760.523 99.6712C760.523 98.3266 759.851 97.6543 758.508 97.6543ZM698.728 139C691.003 144.378 681.264 148.412 669.845 151.437C676.226 142.362 682.943 134.63 689.996 128.916C696.713 123.201 702.422 120.176 706.452 120.176C709.139 120.176 710.482 121.521 710.482 123.874C710.818 128.58 706.788 133.622 698.728 139ZM720.222 145.051C719.55 145.051 718.878 145.723 717.871 147.068C699.735 171.27 684.622 183.371 672.196 183.371C664.808 183.371 661.113 180.01 661.113 173.287C661.113 167.909 663.8 161.186 669.174 153.118C686.638 149.757 698.728 146.059 706.116 142.025C713.505 137.992 717.199 133.286 717.199 127.571C717.199 125.218 716.192 123.201 714.177 121.521C712.161 119.84 709.811 118.831 706.788 118.831C700.407 118.831 691.675 121.521 681.264 127.235C661.449 137.992 651.71 150.429 651.71 164.547C651.71 170.598 653.725 175.64 657.419 179.337C661.114 183.371 665.815 185.388 671.189 185.388C682.943 185.388 696.713 175.304 713.169 155.135L718.207 148.748C719.55 147.068 720.222 146.059 720.222 145.723C720.558 145.387 720.558 145.051 720.222 145.051ZM816.608 0.172363C800.152 0.172363 781.009 6.55911 758.844 18.9965C742.723 28.0724 727.946 38.4928 715.184 49.9218C702.086 61.3507 687.645 77.1495 671.189 96.982C639.284 135.639 620.141 158.496 613.088 165.556C603.013 175.976 597.639 181.018 596.296 181.018C595.96 181.018 595.96 180.682 595.96 180.682C595.96 180.346 596.296 180.01 596.296 180.01C606.371 169.925 614.767 158.16 621.148 145.723C627.529 133.286 634.582 115.47 642.306 91.9398C649.359 70.4266 654.397 55.6362 658.091 47.9049C661.113 41.182 665.144 34.4591 670.181 27.7362C670.517 27.0639 670.853 26.7278 670.853 26.3916C670.853 25.7194 670.517 25.7194 670.181 25.7194C668.166 25.7194 662.793 30.4254 653.725 40.1736C644.993 49.5856 635.925 60.6784 626.858 72.4435C594.953 114.462 569.764 145.051 550.957 164.547C537.859 178.329 529.799 185.052 527.448 185.052C527.112 185.052 527.112 185.052 527.112 184.716C527.112 184.716 528.12 183.707 529.799 182.027C547.599 166.564 562.712 148.076 575.138 126.563C587.564 105.049 593.945 86.8977 593.945 71.7712C593.945 57.6531 589.915 45.888 581.519 36.476C573.123 26.7278 563.048 22.0218 550.621 22.0218C529.799 22.0218 508.305 33.1145 485.468 54.9639C475.393 64.7121 467.332 75.4688 461.623 87.2338C455.914 98.9989 452.891 110.428 452.891 121.184C452.891 132.949 456.25 142.362 462.631 150.093C469.012 157.824 477.072 161.522 487.147 161.522C504.275 161.522 520.396 151.437 535.173 130.933C548.606 112.445 555.323 95.6374 555.323 80.8471C555.323 74.4603 553.644 69.082 550.286 65.0483C546.927 61.0145 542.561 58.9977 537.188 58.9977C532.486 58.9977 528.456 60.6784 524.762 63.7037C521.067 66.729 519.388 70.4266 519.388 74.7965C519.388 80.1748 521.739 82.8639 526.777 82.8639C529.463 82.8639 531.478 81.8555 533.493 80.1748C535.508 78.494 536.18 76.141 536.18 73.788C536.18 69.7543 534.501 67.7374 530.807 67.7374C530.135 67.7374 528.792 67.7374 526.777 68.0736C526.105 68.0736 525.769 68.4097 525.433 68.4097C525.097 68.4097 524.762 68.0736 524.762 67.7374C524.762 66.3928 526.105 65.0483 528.792 63.7037C531.478 62.3591 534.165 61.6868 537.188 61.6868C541.889 61.6868 545.584 63.3675 548.606 67.0651C551.629 70.7627 552.972 75.4688 552.972 81.1832C552.972 93.6206 547.935 107.739 537.523 123.537C521.739 147.74 504.611 160.177 487.147 160.177C478.751 160.177 472.034 157.152 466.661 151.437C461.287 145.387 458.936 137.656 458.936 128.243C458.936 105.049 469.012 82.1916 489.162 59.3338C509.313 36.476 529.463 25.0471 549.95 25.0471C559.689 25.0471 567.413 28.4085 572.787 35.1314C578.496 41.8543 581.183 50.9302 581.183 62.3591C581.183 79.1663 574.13 101.688 560.025 129.924C545.92 158.16 531.143 179.337 515.694 193.456C514.686 194.464 514.015 194.8 514.015 195.136C514.015 195.472 514.35 195.809 514.686 195.809C516.701 195.809 523.754 191.102 535.844 181.69C558.346 163.875 584.541 134.966 614.431 94.2928C633.239 69.4182 645.329 53.6194 650.367 47.2326L653.389 43.535L654.732 42.1904C655.404 41.5181 656.076 41.182 656.412 41.182C656.412 41.5181 655.74 42.5266 654.061 44.2073C647.68 52.2748 641.97 62.3591 636.261 74.4603C630.552 86.5615 623.163 105.722 613.76 131.941C603.013 161.186 592.938 181.018 582.862 191.439C580.511 193.792 579.504 194.8 579.504 195.136C579.504 195.472 579.84 195.472 580.176 195.472C581.183 195.472 584.206 193.456 589.579 189.422C606.035 177.321 628.537 153.79 657.755 118.159C681.936 88.9145 699.064 69.082 709.139 59.3338C718.878 49.5856 731.305 40.1736 745.746 30.7615C771.27 14.2904 793.099 6.22297 811.235 6.22297C814.929 6.22297 817.952 6.22297 820.303 6.55911H821.982C824.333 6.55911 825.676 5.55068 825.676 3.53381C825.005 1.1808 821.982 0.172363 816.608 0.172363ZM345.758 156.48C332.324 174.631 322.92 183.707 317.547 183.707C312.845 183.707 310.83 181.018 310.83 175.976C310.83 167.236 316.875 155.807 328.63 141.689C340.384 127.571 349.788 120.512 357.176 120.512C360.87 120.512 362.55 122.529 362.55 126.227C362.214 131.605 356.84 141.689 345.758 156.48ZM394.119 144.715C393.783 144.715 393.447 145.051 392.776 146.059C385.723 156.48 378.67 165.555 371.617 172.615C364.565 179.674 359.527 183.371 356.505 183.371C353.482 183.371 351.803 181.69 351.803 177.657C351.803 173.959 355.497 165.892 362.55 153.79L383.372 119.168C380.013 119.84 377.327 119.84 374.976 119.84C373.297 119.84 370.946 119.504 368.595 119.168L362.55 130.596C363.221 128.243 363.557 126.563 363.557 125.218C363.557 120.512 361.206 118.159 356.169 118.159C350.459 118.159 342.735 120.848 333.331 125.89C311.837 137.656 301.426 151.101 301.426 166.228C301.426 171.606 302.77 176.312 305.792 179.674C308.479 183.371 312.173 185.052 316.203 185.052C320.234 185.052 324.264 183.035 328.294 179.337C332.324 175.64 338.369 167.909 346.429 157.152C343.743 162.194 342.735 166.564 342.735 170.934C342.735 174.968 343.743 178.329 346.093 181.018C348.444 183.707 351.467 185.052 354.825 185.052C360.199 185.052 367.587 179.337 376.655 168.245C388.074 154.463 393.783 147.068 393.783 145.387C394.791 145.051 394.455 144.715 394.119 144.715ZM310.83 144.715C310.494 144.715 310.158 145.051 309.487 146.059C291.687 170.934 279.597 183.707 272.544 183.707C268.85 183.707 266.835 182.027 266.835 178.329C266.835 174.968 268.85 169.925 272.544 163.539L299.411 119.504C295.717 120.176 292.695 120.176 290.344 120.176C289 120.176 286.985 119.84 284.634 119.504L266.163 150.765C260.789 160.177 258.103 166.9 258.103 171.606C258.103 175.64 259.446 179.001 261.797 181.354C264.148 184.043 267.506 185.388 271.201 185.388C278.925 185.388 290.344 174.968 305.121 154.463L310.158 147.404C310.83 146.395 311.166 145.723 311.502 145.387C311.502 145.051 311.166 144.715 310.83 144.715ZM304.785 91.6037C302.098 91.6037 299.411 92.9483 297.06 95.3013C294.71 97.6543 293.366 100.343 293.366 102.696C293.366 106.394 295.045 108.075 298.74 108.075C301.426 108.075 304.113 106.73 306.464 104.377C308.815 102.024 309.822 99.335 309.822 96.6459C309.822 93.2844 308.143 91.6037 304.785 91.6037ZM285.978 63.3675C284.298 63.3675 281.948 63.0314 279.597 62.3591C269.857 79.8386 257.767 100.343 243.662 124.21C231.907 143.706 225.19 155.471 223.175 159.505C221.16 163.539 220.153 167.909 220.153 171.942C220.153 175.976 221.16 179.001 223.511 181.69C225.526 184.38 228.549 185.388 231.907 185.388C238.96 185.388 250.043 174.968 264.82 154.463L269.857 147.404C270.529 146.731 271.201 146.059 271.201 145.387C271.201 145.051 271.201 144.715 270.865 144.715C270.193 144.715 269.857 145.051 269.521 146.059C251.722 170.934 239.631 183.707 233.25 183.707C230.228 183.707 228.884 182.027 228.884 178.329C228.884 175.304 231.571 168.917 236.945 159.169C242.318 149.421 261.797 117.151 294.71 62.023C292.023 62.6953 289 63.3675 285.978 63.3675ZM210.749 139C203.025 144.378 193.285 148.412 181.867 151.437C188.248 142.362 194.964 134.63 202.017 128.916C209.07 123.201 214.443 120.176 218.473 120.176C221.16 120.176 222.503 121.521 222.503 123.874C222.503 128.58 218.473 133.622 210.749 139ZM231.907 145.051C231.235 145.051 230.564 145.723 229.556 147.068C211.421 171.27 196.308 183.371 183.882 183.371C176.493 183.371 172.799 180.01 172.799 173.287C172.799 167.909 175.486 161.186 180.859 153.118C198.323 149.757 210.413 146.059 217.802 142.025C225.19 137.992 228.884 133.286 228.884 127.571C228.884 125.218 227.877 123.201 225.862 121.521C223.847 119.84 221.496 118.831 218.473 118.831C212.092 118.831 203.36 121.521 192.949 127.235C173.135 137.992 163.395 150.429 163.395 164.547C163.395 170.598 165.41 175.64 169.105 179.337C172.799 183.371 177.501 185.388 182.874 185.388C194.629 185.388 208.398 175.304 224.854 155.135L229.892 148.748C231.235 147.068 231.907 146.059 231.907 145.723C232.579 145.387 232.243 145.051 231.907 145.051ZM52.5673 96.982C20.6623 91.6037 4.54183 79.1663 4.54183 60.3422C4.54183 49.9218 10.9228 40.5097 23.349 32.7784C35.7752 25.0471 50.5522 21.0133 67.0085 21.0133C93.8759 21.0133 119.4 28.0724 143.245 41.8543C102.608 50.9302 72.382 69.4181 52.5673 96.982ZM123.766 89.2507C103.951 95.3013 85.4798 98.3266 69.0235 98.3266C78.0913 85.8892 89.5099 74.7965 103.615 64.7121C117.721 54.9639 131.826 47.9049 146.603 43.8712C156.678 50.5941 165.074 58.3254 171.12 67.0651C159.701 75.8049 143.916 83.2001 123.766 89.2507ZM173.135 66.0567C167.089 57.3169 159.365 49.9218 149.962 43.535C155.335 42.5266 160.037 41.8543 164.067 41.8543C176.493 41.8543 182.874 45.2157 182.874 51.6025C182.538 55.6362 179.516 60.3422 173.135 66.0567ZM161.044 39.8374C156.007 39.8374 151.305 40.1736 146.603 41.182C119.736 23.7025 93.2042 14.9627 66.6727 14.9627C47.8655 14.9627 32.0809 18.9965 19.3189 27.4001C6.89272 35.4675 0.511719 45.888 0.511719 58.3254C0.511719 78.8302 17.6397 92.276 51.5597 98.6627C42.1562 112.781 37.4544 126.563 37.4544 140.009C37.4544 153.79 42.1562 165.219 51.5597 174.631C60.9633 184.043 72.7178 188.749 86.8232 188.749C106.974 188.749 125.109 181.69 141.565 167.572C158.022 153.454 166.082 137.656 166.082 120.512C166.082 104.041 158.693 95.6374 143.245 95.6374C131.49 95.6374 120.072 101.016 108.653 112.109C97.2343 123.201 91.525 134.294 91.525 145.723C91.525 152.11 94.2117 155.135 99.2493 155.135C104.959 155.135 107.645 152.11 107.645 146.395C107.645 142.025 105.63 140.009 101.6 140.009C99.921 140.009 97.906 141.017 95.8909 142.698C95.5551 143.034 95.2192 143.034 94.8834 143.034C94.5476 143.034 94.2117 142.698 94.2117 141.689C94.2117 132.613 99.921 123.201 111.004 112.781C122.422 102.36 132.834 97.3181 142.573 97.3181C148.618 97.3181 153.656 98.9989 157.35 102.696C161.044 106.394 163.059 111.1 163.059 117.487C163.059 129.252 157.686 141.353 147.275 154.463C129.811 175.976 109.66 186.733 87.159 186.733C75.4045 186.733 66.001 183.371 58.9483 176.984C51.8956 170.598 48.5372 161.858 48.5372 150.765C48.5372 134.294 54.9182 117.487 67.3443 100.007C69.0235 100.007 70.7028 100.343 73.0536 100.343C88.1666 100.343 105.63 97.3182 125.445 90.9314C144.924 84.8808 160.708 77.4856 172.127 68.7459C177.501 76.8133 180.523 84.8808 180.523 92.6121C180.523 95.3013 180.859 96.6459 181.867 96.6459C183.21 96.6459 183.546 95.6374 183.546 93.6206C183.546 85.5531 180.187 76.8133 173.806 67.4013C180.859 62.023 184.553 56.6447 184.553 51.6025C184.553 43.8712 176.829 39.8374 161.044 39.8374Z" fill="#DDD7D5"/>
<path d="M847.842 276.483V274.466H846.163C843.14 274.13 841.797 272.449 841.797 268.752V251.272C841.797 245.558 837.767 241.86 831.05 241.86C825.676 241.86 821.646 243.541 816.609 247.911V242.196H814.258C809.892 243.205 807.541 243.205 803.511 243.541V245.558H805.19C808.884 245.894 809.892 247.239 809.892 251.272V267.743C809.892 271.777 808.548 273.122 805.526 273.458H803.847V275.475H822.654V273.458H820.975C817.952 273.122 816.609 271.441 816.609 267.743V250.264C820.975 246.23 825.005 244.213 829.035 244.213C833.065 244.213 835.08 246.566 835.08 251.272V267.743C835.08 271.777 833.737 273.122 830.714 273.458H829.035V275.475H847.842V276.483ZM794.107 260.012C794.107 269.088 790.413 274.466 784.368 274.466C777.987 274.466 774.292 269.088 774.292 259.34C774.292 250.264 778.323 244.549 784.368 244.549C790.413 244.549 794.107 250.264 794.107 260.012ZM801.496 259.676C801.496 253.289 798.137 241.524 784.032 241.524C770.262 241.524 766.904 252.953 766.904 259.34C766.904 270.096 773.621 276.819 784.368 276.819C794.443 277.156 801.496 270.096 801.496 259.676ZM759.515 232.112C759.515 229.759 757.5 228.078 755.485 228.078C753.134 228.078 751.119 229.759 751.119 232.112C751.119 234.465 753.134 236.146 755.149 236.146C757.836 236.146 759.515 234.465 759.515 232.112ZM764.889 276.483V274.466H763.21C760.187 274.13 758.844 272.449 758.844 268.752V242.533H756.493C752.127 243.205 749.776 243.541 746.082 243.877V245.894H747.425C751.119 246.23 752.127 247.575 752.127 251.609V268.08C752.127 272.113 750.784 273.458 747.761 273.794H746.082V275.811H764.889V276.483ZM743.731 272.449L741.716 270.769C739.365 273.458 737.686 274.466 735.671 274.466C731.976 274.466 730.297 271.441 730.297 265.054V244.549H740.372V242.196H730.297V229.423H727.61C727.61 238.163 724.588 241.86 717.535 242.196V244.549H723.58V268.08C723.58 275.139 729.29 276.819 733.656 276.819C738.021 277.156 741.044 275.475 743.731 272.449ZM703.43 268.752C699.4 272.449 696.377 274.13 693.019 274.13C689.66 274.13 686.973 271.441 686.973 268.08C686.973 263.374 693.019 260.348 703.43 259.34V268.752ZM718.543 274.466L717.199 272.786C715.856 273.794 715.184 274.13 714.177 274.13C710.147 274.13 710.147 270.433 710.147 267.071V252.281C710.147 243.877 702.422 241.86 696.713 241.86C689.66 241.86 681.264 245.558 681.264 250.936C681.264 252.617 682.943 253.962 684.623 253.962C686.638 253.962 688.317 252.281 688.317 250.264V248.247C688.317 246.23 691.339 244.549 695.37 244.549C700.407 244.549 703.43 246.902 703.43 250.936V256.651C696.041 257.323 679.585 258.668 679.585 268.416C679.585 273.458 684.287 277.156 690.332 277.156C695.034 277.156 698.392 275.811 703.094 271.777C704.437 275.475 706.788 277.156 711.154 277.156C714.177 277.156 716.528 276.483 718.543 274.466ZM677.234 245.558C677.234 243.205 675.219 241.524 672.196 241.524C666.487 241.524 662.793 245.558 660.442 247.911V242.196H658.091C653.725 243.205 651.374 243.205 647.344 243.541V245.558H649.023C652.718 245.894 653.725 247.239 653.725 251.272V267.743C653.725 271.777 652.382 273.122 649.359 273.458H647.68V275.475H666.487V273.458H664.808C661.785 273.122 660.442 271.441 660.442 267.743V250.6C663.129 247.911 664.808 246.566 666.823 246.566C668.166 246.566 668.502 246.902 669.846 247.575C671.189 248.583 672.196 248.919 673.54 248.919C675.555 249.592 677.234 247.911 677.234 245.558ZM644.993 272.449L642.978 270.769C640.627 273.458 638.948 274.466 636.933 274.466C633.239 274.466 631.559 271.441 631.559 265.054V244.549H641.635V242.196H631.559V229.423H628.873C628.873 238.163 625.85 241.86 618.797 242.196V244.549H624.843V268.08C624.843 275.139 630.552 276.819 634.918 276.819C639.284 277.156 642.306 275.475 644.993 272.449ZM616.782 265.727C616.782 261.021 614.096 257.995 607.715 256.651L597.975 254.298C595.624 253.625 592.602 252.953 592.602 249.928C592.602 246.903 595.624 244.549 599.654 244.549C605.028 244.549 609.73 247.911 612.081 253.625H614.432L612.081 242.869H610.066L609.394 245.558C606.371 243.205 603.349 242.196 599.319 242.196C592.266 242.196 586.557 246.566 586.557 252.617C586.557 256.987 589.579 259.676 596.968 261.693L606.036 264.046C609.394 265.054 611.073 266.399 611.073 268.752C611.073 272.449 607.043 275.139 602.005 275.139C597.639 275.139 593.273 273.122 590.587 270.096C589.243 268.752 588.572 267.071 587.564 264.382H585.213L587.564 276.819H589.915L590.587 273.794C594.281 276.819 597.304 277.828 602.005 277.828C610.737 277.156 616.782 272.449 616.782 265.727ZM581.519 276.483V274.466H579.84C576.817 274.13 575.474 272.449 575.474 268.752V242.533H573.123C569.429 243.541 568.085 243.541 562.376 243.877V245.894H564.055C567.749 246.23 568.757 247.575 568.757 251.609V267.407C564.055 271.441 560.025 273.458 556.331 273.458C551.965 273.458 549.95 271.105 549.95 265.727V241.86H547.599C543.905 242.869 542.225 242.869 536.852 243.205V245.222H538.531C542.225 245.558 543.233 246.902 543.233 250.936V265.727C543.233 274.13 548.606 276.483 553.644 276.483C558.682 276.483 562.712 274.802 568.757 269.76V275.811H581.519V276.483ZM536.516 276.483V274.466H534.837C531.814 274.13 530.471 272.449 530.471 268.752V226.062H527.784C524.09 227.406 522.747 227.742 517.709 228.415V230.768H519.052C522.747 231.104 523.754 232.448 523.754 238.835V268.752C523.754 272.786 522.411 274.13 519.388 274.466H517.709V276.483H536.516ZM514.351 276.483V274.466H512.671C509.649 274.13 508.305 272.449 508.305 268.752V226.062H505.619C501.924 227.406 500.581 227.742 495.543 228.415V230.768H496.887C500.581 231.104 501.589 232.448 501.589 238.835V268.752C501.589 272.786 500.245 274.13 497.223 274.466H495.543V276.483H514.351ZM490.842 276.483V274.13L489.498 273.794C485.804 273.122 484.796 271.777 484.796 266.063V238.835C484.796 233.121 485.468 231.776 489.498 231.104L490.842 230.768V228.415H471.699V230.768L473.042 231.104C476.736 231.776 477.744 233.121 477.744 238.835V266.735C477.744 272.45 477.072 273.794 473.042 274.466L471.699 274.802V277.156H490.842V276.483ZM426.36 268.08C422.666 272.449 418.635 274.13 413.598 274.13C406.209 274.13 401.172 268.752 401.172 261.021C401.172 255.306 403.858 251.609 409.568 249.928C414.941 253.962 420.986 260.348 426.36 268.08ZM420.986 236.146C420.986 241.86 416.956 244.213 413.598 245.558C409.904 241.86 408.896 239.507 408.896 236.482C408.896 233.121 411.583 230.431 414.941 230.431C418.3 230.431 420.986 232.784 420.986 236.146ZM446.175 276.483V273.794C445.167 273.794 444.495 273.794 443.824 273.794C438.786 273.794 436.435 272.113 432.069 266.063C434.084 263.037 435.092 260.348 436.435 255.642C438.114 248.247 438.786 247.575 444.831 246.23V244.213H428.039V246.23C432.741 247.239 433.748 247.911 433.748 250.6C433.748 254.634 432.741 258.331 430.39 262.365C426.36 256.651 420.986 250.936 416.285 247.575C422.33 245.558 426.024 241.188 426.024 236.482C426.024 231.104 421.658 227.406 415.277 227.406C408.224 227.406 402.515 231.776 402.515 237.49C402.515 241.188 404.194 244.549 407.553 247.575C397.813 250.6 393.783 256.315 393.783 262.365C393.783 271.105 402.179 277.492 412.255 277.492C418.3 277.492 422.33 275.811 427.703 271.105C431.062 276.483 434.42 276.483 439.122 276.483H446.175ZM368.595 272.449L366.58 270.769C364.229 273.458 362.55 274.466 360.535 274.466C356.841 274.466 355.161 271.441 355.161 265.054V244.549H365.237V242.196H355.161V229.423H352.475C352.475 238.163 349.452 241.86 342.399 242.196V244.549H348.444V268.08C348.444 275.139 354.154 276.819 358.52 276.819C362.886 277.156 366.244 275.475 368.595 272.449ZM340.048 245.558C340.048 243.205 338.033 241.524 335.011 241.524C329.301 241.524 325.607 245.558 323.256 247.911V242.196H320.905C316.539 243.205 314.189 243.205 310.158 243.541V245.558H311.838C315.532 245.894 316.539 247.239 316.539 251.272V267.743C316.539 271.777 315.196 273.122 312.174 273.458H310.494V275.475H329.301V273.458H327.622C324.264 274.13 322.92 272.45 322.92 268.416V251.272C325.607 248.583 327.286 247.239 329.301 247.239C330.645 247.239 330.981 247.575 332.324 248.247C333.667 249.256 334.675 249.592 336.018 249.592C338.369 249.592 340.048 247.911 340.048 245.558ZM287.993 255.642H272.208L279.933 234.465L287.993 255.642ZM307.808 276.483V274.13C303.106 273.458 302.434 272.786 299.747 266.063L284.634 228.078H277.918L265.827 259.34C261.125 271.441 260.118 273.122 255.08 273.794H254.409V276.147H273.216V273.794C270.529 273.458 269.522 273.122 268.85 272.786C266.163 271.105 266.835 268.416 268.514 264.382L270.865 258.331H289.336L293.03 267.407C294.71 271.777 294.038 273.122 288.329 274.13V276.483H307.808ZM225.526 253.289H208.734C209.406 248.583 211.421 244.549 217.466 244.549C224.519 244.549 225.526 251.272 225.526 253.289ZM232.915 268.416L230.564 267.407C227.877 272.113 224.855 274.13 220.489 274.13C210.749 274.13 208.398 266.735 208.398 256.315H232.915C232.915 244.886 222.839 241.86 217.466 241.86C207.727 241.86 200.674 249.256 200.674 259.34C200.674 267.407 205.712 277.492 218.138 277.492C224.519 277.156 229.22 274.466 232.915 268.416ZM198.995 276.483V274.466H197.315C194.293 274.13 192.949 272.449 192.949 268.752V251.272C192.949 245.558 188.919 241.86 182.203 241.86C176.829 241.86 172.799 243.541 167.761 247.911V242.196H165.41C161.044 243.205 158.694 243.205 154.663 243.541V245.558H156.343C160.037 245.894 161.044 247.239 161.044 251.272V267.743C161.044 271.777 159.701 273.122 156.679 273.458H154.999V275.475H173.806V273.458H172.127C169.105 273.122 167.761 271.441 167.761 267.743V250.264C172.127 246.23 176.157 244.213 180.187 244.213C184.218 244.213 186.233 246.566 186.233 251.272V267.743C186.233 271.777 184.889 273.122 181.867 273.458H180.187V275.475H198.995V276.483ZM145.932 232.112C145.932 229.759 143.917 228.078 141.901 228.078C139.551 228.078 137.536 229.759 137.536 232.112C137.536 234.465 139.551 236.146 141.566 236.146C143.581 236.146 145.932 234.465 145.932 232.112ZM151.305 276.483V274.466H149.626C146.603 274.13 145.26 272.449 145.26 268.752V242.533H142.909C138.543 243.205 136.192 243.541 132.498 243.877V245.894H133.841C137.536 246.23 138.543 247.575 138.543 251.609V268.08C138.543 272.113 137.2 273.458 134.177 273.794H132.498V275.811H151.305V276.483ZM130.819 240.516L125.781 228.415H87.1592V230.768L88.8384 231.104C92.5327 231.44 93.5402 233.121 93.5402 238.835V266.735C93.5402 272.45 92.5327 274.13 88.8384 274.466L87.1592 274.802V277.156H107.31V274.802L104.959 274.466C101.265 274.13 100.257 272.45 100.257 266.735V252.617H104.959C112.347 252.617 113.355 256.315 114.027 261.693H116.377V240.852H114.027C113.355 247.239 112.347 249.592 104.959 249.592H100.257V238.499C100.257 234.129 100.593 231.44 108.317 231.44C116.713 231.44 122.423 234.465 128.804 241.524L130.819 240.516Z" fill="#DDD7D5"/>
</svg>
